<?xml version="1.0" standalone="no"?>
<!DOCTYPE svg PUBLIC "-//W3C//DTD SVG 20010904//EN"
 "http://www.w3.org/TR/2001/REC-SVG-20010904/DTD/svg10.dtd">
<svg version="1.0" xmlns="http://www.w3.org/2000/svg"
 width="1080.000000pt" height="1080.000000pt" viewBox="0 0 1080.000000 1080.000000"
 preserveAspectRatio="xMidYMid meet">

<g transform="translate(0.000000,1080.000000) scale(0.100000,-0.100000)"
fill="#000000" stroke="none">
<path d="M5513 7619 c-306 -64 -601 -241 -794 -476 l-35 -41 -94 108 -95 109
-62 1 c-35 0 -63 -3 -63 -6 0 -5 97 -118 233 -271 l20 -23 -56 -108 c-90 -174
-144 -360 -160 -550 -7 -94 19 -38 32 68 15 117 42 228 82 328 36 90 109 232
120 232 12 0 534 -602 533 -614 -1 -6 -179 -307 -398 -669 -218 -362 -396
-661 -396 -664 0 -3 53 -4 118 -2 103 4 124 7 172 31 31 15 68 40 82 55 15 15
162 249 328 518 165 270 304 491 308 492 4 1 33 -28 64 -65 l58 -67 0 -482 0
-483 140 0 140 0 0 566 0 566 128 -4 c77 -3 139 -10 157 -19 141 -65 225 -192
385 -583 44 -108 100 -238 124 -287 l44 -91 -91 -60 c-51 -33 -122 -74 -159
-91 -64 -30 -84 -47 -55 -47 23 0 151 67 234 122 l81 55 36 -38 c46 -47 106
-75 188 -89 69 -11 151 -13 160 -4 4 3 -7 25 -23 50 -17 24 -56 98 -88 165
l-58 121 58 82 c108 149 193 343 235 537 26 119 27 419 1 538 -24 112 -66 241
-77 241 -14 0 -13 -11 15 -95 114 -349 71 -760 -112 -1080 -59 -104 -123 -189
-133 -178 -5 4 -39 87 -76 183 -141 368 -232 499 -386 551 l-51 17 55 11 c139
29 284 135 342 250 63 124 86 347 51 486 -39 154 -133 274 -266 339 -125 61
-166 66 -606 66 l-393 0 0 -571 c0 -329 -4 -569 -9 -567 -6 2 -634 711 -788
889 -12 14 -2 28 83 118 115 121 231 211 363 279 138 73 236 104 469 148 25 5
20 24 -6 23 -9 0 -58 -9 -109 -20z m787 -421 c66 -32 96 -62 145 -143 60 -100
80 -180 80 -325 -1 -92 -5 -141 -19 -185 -39 -129 -102 -216 -184 -257 -45
-22 -60 -23 -289 -26 l-243 -4 0 487 0 487 228 -4 c224 -3 228 -3 282 -30z"/>
<path d="M9262 4469 c-61 -10 -137 -47 -169 -81 -55 -58 -68 -160 -32 -235 35
-73 81 -103 344 -223 101 -46 139 -77 156 -127 30 -91 -79 -192 -209 -193
-117 0 -197 78 -217 213 -8 54 -25 60 -70 25 -25 -19 -27 -26 -23 -75 11 -133
181 -223 368 -194 202 32 297 171 220 322 -34 66 -107 114 -307 199 -138 59
-176 91 -188 159 -21 123 153 223 280 161 68 -33 94 -78 120 -212 7 -34 36
-37 65 -8 14 14 20 33 20 68 0 99 -84 177 -214 201 -66 12 -70 12 -144 0z"/>
<path d="M1130 4046 c0 -475 -3 -456 71 -456 l39 0 0 188 c0 186 0 189 24 211
l24 22 118 -192 c66 -106 131 -201 145 -211 18 -14 38 -18 72 -16 l47 3 -150
250 c-82 138 -150 254 -150 258 0 6 180 218 293 345 l20 22 -24 0 c-20 0 -64
-44 -220 -221 l-194 -221 -6 209 c-3 114 -6 209 -7 210 -4 4 -77 23 -89 23
-10 0 -13 -91 -13 -424z"/>
<path d="M2346 4453 c-25 -86 -226 -842 -226 -851 0 -7 7 -12 15 -12 9 0 20
21 30 58 9 31 20 71 25 87 5 17 14 49 20 73 l11 42 144 0 144 0 36 -117 c21
-65 42 -124 47 -130 10 -13 98 -19 98 -7 0 22 -235 804 -248 827 -9 15 -25 30
-37 33 -11 3 -28 8 -37 10 -10 3 -18 -2 -22 -13z m86 -350 c36 -117 63 -215
60 -218 -8 -8 -250 -6 -255 3 -7 11 116 443 124 434 4 -4 36 -103 71 -219z"/>
<path d="M3150 4042 c0 -320 3 -431 12 -440 7 -7 29 -12 50 -12 l38 0 0 215 0
215 59 0 c48 0 65 -5 89 -24 33 -29 77 -108 122 -221 61 -154 89 -185 169
-185 l39 0 -28 53 c-15 28 -47 101 -70 161 -47 118 -90 183 -134 205 l-29 14
38 13 c86 29 127 88 133 192 6 82 -16 141 -70 186 -53 45 -105 56 -278 56
l-140 0 0 -428z m311 372 c21 -10 39 -33 56 -71 22 -47 25 -65 21 -123 -6 -77
-32 -129 -73 -148 -14 -7 -68 -12 -120 -12 l-95 0 0 185 0 185 90 0 c63 0 100
-5 121 -16z"/>
<path d="M4435 4453 c-162 -58 -269 -188 -295 -358 -30 -190 76 -393 247 -473
52 -24 69 -27 168 -27 100 0 115 2 167 28 89 44 161 116 205 204 33 67 38 85
41 170 9 206 -79 360 -254 440 -78 35 -204 43 -279 16z m230 -37 c123 -57 195
-202 195 -393 0 -145 -36 -249 -111 -324 -56 -56 -110 -79 -189 -79 -110 0
-203 60 -256 162 -124 243 -27 584 186 649 51 15 124 9 175 -15z"/>
<path d="M5500 4031 l0 -441 207 2 c152 2 207 6 210 15 3 9 -34 13 -154 15
l-158 3 -3 406 c-2 309 -5 409 -15 417 -6 6 -29 13 -49 17 l-38 7 0 -441z"/>
<path d="M6370 4046 c0 -475 -3 -456 71 -456 l39 0 0 215 0 215 55 0 c94 0
123 -38 235 -303 41 -96 74 -127 136 -127 l44 0 -28 58 c-16 31 -46 100 -66
154 -48 124 -85 182 -133 207 -32 17 -34 20 -15 21 57 1 135 73 149 137 23
111 -7 213 -75 257 -54 36 -110 45 -269 46 l-143 0 0 -424z m324 363 c85 -67
97 -240 21 -316 -33 -33 -33 -33 -134 -33 l-101 0 0 185 0 185 94 0 c80 0 97
-3 120 -21z"/>
<path d="M7440 4030 l0 -440 245 0 c210 0 245 2 245 15 0 12 -31 15 -192 17
l-193 3 0 230 0 230 113 3 c94 2 112 5 112 19 0 13 -15 15 -112 12 l-113 -4
-3 158 -3 157 196 0 c182 0 196 1 193 18 -3 16 -24 17 -246 20 l-242 2 0 -440z"/>
<path d="M8400 4042 c0 -319 3 -431 12 -440 7 -7 29 -12 50 -12 l38 0 0 424
c0 327 -3 426 -12 433 -7 6 -30 13 -50 17 l-38 7 0 -429z"/>
<path d="M4350 3270 l0 -102 71 4 c63 3 74 7 95 31 16 19 24 40 24 67 0 27 -8
48 -24 67 -21 24 -32 28 -95 31 l-71 4 0 -102z m145 55 c56 -55 15 -135 -70
-135 l-45 0 0 80 0 80 45 0 c35 0 52 -6 70 -25z"/>
<path d="M4780 3270 l0 -100 80 0 c47 0 80 4 80 10 0 6 -30 10 -70 10 l-70 0
0 40 0 40 40 0 c22 0 40 5 40 10 0 6 -18 10 -40 10 -38 0 -40 2 -40 30 l0 30
65 0 c37 0 65 4 65 10 0 6 -32 10 -75 10 l-75 0 0 -100z"/>
<path d="M5182 3354 c-24 -16 -30 -58 -10 -70 7 -5 37 -11 67 -15 30 -4 61
-15 69 -23 14 -14 14 -17 -3 -36 -22 -24 -73 -27 -115 -5 -19 10 -31 11 -35 5
-8 -13 55 -40 94 -40 40 0 79 19 86 42 15 46 -24 78 -94 78 -46 0 -70 22 -51
45 16 19 67 19 102 1 17 -9 30 -11 34 -5 7 12 -57 39 -93 39 -16 0 -39 -7 -51
-16z"/>
<path d="M5580 3270 c0 -60 4 -100 10 -100 6 0 10 40 10 100 0 60 -4 100 -10
100 -6 0 -10 -40 -10 -100z"/>
<path d="M5900 3363 c-8 -3 -25 -15 -37 -26 -33 -29 -32 -105 0 -135 30 -29
79 -38 117 -22 35 14 50 37 50 74 0 24 -4 26 -40 26 -22 0 -40 -4 -40 -10 0
-5 11 -10 25 -10 30 0 34 -29 7 -53 -27 -24 -69 -21 -97 8 -69 68 23 175 102
120 24 -17 41 -4 18 15 -16 14 -83 22 -105 13z"/>
<path d="M6270 3273 c0 -62 4 -103 10 -103 6 0 10 30 10 70 0 40 4 70 10 70 6
0 10 -3 10 -7 1 -5 27 -37 60 -73 l59 -65 1 103 c0 61 -4 102 -10 102 -6 0
-10 -30 -10 -70 0 -40 -4 -70 -10 -70 -5 0 -10 3 -10 8 0 4 -27 36 -60 72
l-59 65 -1 -102z"/>
</g>
</svg>
