<?xml version="1.0" standalone="no"?>
<!DOCTYPE svg PUBLIC "-//W3C//DTD SVG 20010904//EN"
 "http://www.w3.org/TR/2001/REC-SVG-20010904/DTD/svg10.dtd">
<svg version="1.0" xmlns="http://www.w3.org/2000/svg"
 width="512.000000pt" height="512.000000pt" viewBox="0 0 512.000000 512.000000"
 preserveAspectRatio="xMidYMid meet">

<g transform="translate(0.000000,512.000000) scale(0.100000,-0.100000)"
fill="#000000" stroke="none">
<path d="M600 4685 c-211 -47 -378 -215 -425 -428 -14 -64 -15 -243 -13 -1712
l3 -1640 22 -58 c67 -174 187 -295 356 -359 l62 -23 1915 -3 c1351 -2 1934 0
1980 8 159 27 317 142 392 286 71 135 68 70 68 1360 0 1124 -1 1163 -20 1238
-11 43 -31 99 -46 126 -60 110 -177 211 -303 262 l-56 23 -920 5 -920 5 -67
33 c-36 18 -81 49 -100 70 -19 21 -72 110 -118 198 -170 327 -205 389 -258
446 -62 66 -139 116 -232 150 l-65 23 -595 2 c-485 2 -607 -1 -660 -12z m1296
-247 c82 -43 129 -107 241 -324 57 -110 121 -232 143 -272 l39 -72 -967 2
-967 3 0 210 c0 175 3 218 18 261 23 66 68 127 123 165 87 60 65 58 719 56
l600 -2 51 -27z m2646 -921 c73 -36 150 -119 175 -189 17 -50 18 -114 18
-1218 l0 -1165 -28 -61 c-35 -76 -94 -135 -172 -171 l-60 -28 -1915 0 -1915 0
-67 33 c-77 38 -130 92 -167 171 l-26 56 -3 1303 -3 1302 2053 -2 2053 -3 57
-28z"/>
</g>
</svg>
